<?xml version="1.0" encoding="UTF-8" standalone="no"?>
<svg xmlns:xlink="http://www.w3.org/1999/xlink" height="152.75px" width="69.15px" xmlns="http://www.w3.org/2000/svg">
  <g transform="matrix(1.0, 0.0, 0.0, 1.0, 34.85, 213.75)">
    <path d="M-34.85 -197.7 L0.0 -213.75 34.3 -197.7 8.7 -64.8 0.55 -61.0 -8.65 -64.8 -34.85 -197.7" fill="#2a9134" fill-rule="evenodd" stroke="none"/>
    <path d="M22.2 -168.8 L20.25 -156.95 18.3 -145.1 16.3 -133.25 14.35 -121.35 12.35 -109.5 10.4 -97.65 -0.05 -92.75 -9.95 -97.65 -11.9 -109.5 -13.9 -121.35 -15.9 -133.25 -17.85 -145.1 -19.85 -156.95 -21.8 -168.8 -23.8 -180.7 -25.8 -192.55 -0.1 -203.35 26.15 -192.55 24.2 -180.7 22.2 -168.8" fill="#1c5c22" fill-rule="evenodd" stroke="none"/>
    <path d="M22.2 -168.8 L20.25 -156.95 18.3 -145.1 16.3 -133.25 14.35 -121.35 12.35 -109.5 10.4 -97.65 -0.05 -92.75 -9.95 -97.65 -11.9 -109.5 -13.9 -121.35 -15.9 -133.25 -17.85 -145.1 -19.85 -156.95 -21.8 -168.8 -23.8 -180.7 -25.8 -192.55 -0.1 -203.35 26.15 -192.55 24.2 -180.7 22.2 -168.8 Z" fill="none" stroke="#124317" stroke-linecap="round" stroke-linejoin="round" stroke-width="2.0"/>
    <path d="M-0.55 -128.1 L-5.5 -129.15 -7.8 -132.8 -6.5 -137.65 -0.6 -139.1 2.5 -132.85 -0.55 -128.1 M12.25 -157.35 L3.3 -152.05 0.4 -149.1 4.75 -147.1 -1.1 -141.55 -6.5 -146.05 -6.85 -150.6 -3.6 -158.35 3.45 -162.3 3.5 -164.85 0.7 -166.5 -5.5 -165.85 -8.2 -161.2 -13.55 -169.15 -8.5 -174.45 1.4 -175.1 11.85 -173.5 14.65 -165.3 12.25 -157.35" fill="#a3eeaa" fill-rule="evenodd" stroke="none"/>
  </g>
</svg>
